<svg width="243" height="243" viewBox="0 0 243 243" fill="none" xmlns="http://www.w3.org/2000/svg">
<rect width="243" height="243" rx="40" fill="#463D60"/>
<path fill-rule="evenodd" clip-rule="evenodd" d="M123.924 179.313C123.924 179.853 124.544 179.856 124.655 179.313C125.479 175.315 126.73 172.65 128.685 170.063L124.288 170.066C124.087 170.066 123.924 170.228 123.924 170.429V179.313ZM155.535 123.81C155.585 129.59 153.925 134.557 143.385 145.107L135.049 153.445C131.255 157.242 127.844 160.709 125.827 164.175H134.06L135.034 163.2L146.994 151.216C156.954 141.246 158.343 130.7 156.217 123.821C156.036 123.237 155.53 123.197 155.535 123.81ZM145.039 159.075L135.049 169.083C129.002 175.136 123.924 180.352 123.924 186.056L123.93 187.644C123.93 188.074 124.466 188.143 124.63 187.692C126.498 182.585 132.736 177.135 144.178 179.067C144.178 179.067 194.027 187.689 194.445 187.726C194.932 187.769 195.173 187.289 194.859 186.916C194.67 186.691 171.659 163.658 171.659 163.658L145.039 159.075ZM108.977 170.063C108.88 170.063 108.788 170.025 108.72 169.957C108.651 169.888 108.613 169.796 108.613 169.699V164.536C108.613 164.334 108.776 164.172 108.977 164.172L117.701 164.174C117.902 164.174 118.065 164.011 118.065 163.81C118.042 159.173 114.55 156.022 100.557 158.46L70.3419 163.658C70.3419 163.658 47.3299 186.691 47.1419 186.916C46.8269 187.289 47.0679 187.769 47.5549 187.726C47.9749 187.689 97.8219 179.066 97.8219 179.066C109.265 177.135 115.503 182.586 117.37 187.692C117.534 188.142 118.071 188.075 118.071 187.644L118.072 170.426C118.072 170.226 117.909 170.063 117.708 170.063H108.977ZM95.0489 97.9032C85.0889 107.872 83.6999 118.419 85.8269 125.298C86.0069 125.882 86.5129 125.921 86.5069 125.308C86.4569 119.528 88.1189 114.562 98.6579 104.012L121.379 81.2772C127.426 75.2232 132.504 70.0072 132.504 64.3042V55.4073C132.504 54.8653 131.884 54.8633 131.772 55.4073C130.278 62.6673 127.377 65.5322 121.394 71.5202L95.0499 97.9022L95.0489 97.9032ZM132.526 70.9703C132.526 70.4303 131.906 70.4273 131.794 70.9703C130.3 78.2313 127.406 81.1402 121.424 87.1302L97.5599 110.993C85.9799 122.585 83.9759 133.803 89.8659 141.013C90.2589 141.494 90.6809 141.205 90.4259 140.625C86.5309 131.806 95.8689 122.455 100.315 118.005L121.401 96.9002C127.448 90.8472 132.526 85.6312 132.526 79.9272V70.9703ZM98.2149 125.978C86.6339 137.57 91.9589 148.765 98.7149 151.848C99.3069 152.118 99.5429 151.637 99.0889 151.245C93.6729 146.546 95.3169 138.645 102.129 131.827L121.377 112.56C127.424 106.507 132.501 101.292 132.501 95.5882V86.6922C132.501 86.1522 131.881 86.1492 131.771 86.6922C130.276 93.9512 127.381 96.8042 121.398 102.792L98.2149 125.978ZM123.903 163.749C123.903 164.29 124.523 164.292 124.633 163.749C126.129 156.49 129.023 153.579 135.005 147.591L144.484 138.123C156.064 126.533 158.067 115.314 152.177 108.105C151.784 107.624 151.362 107.912 151.619 108.492C155.512 117.311 146.175 126.661 141.729 131.112L135.028 137.821C128.98 143.873 123.903 149.088 123.903 154.792V163.749ZM135.031 131.927C129.048 137.915 126.152 140.768 124.658 148.028C124.546 148.572 123.927 148.57 123.927 148.028V139.132C123.927 133.429 129.004 128.212 135.052 122.16L139.914 117.292C146.727 110.472 148.371 102.573 142.954 97.8742C142.501 97.4822 142.737 97.0003 143.33 97.2713C150.085 100.353 155.41 111.548 143.828 123.141L135.031 131.927ZM191.395 171.348C191.891 171.348 192.187 171.071 192.187 170.67C192.187 170.223 191.939 170.03 191.386 170.03H190.918V171.348H191.395ZM190.195 169.421H191.415C192.454 169.421 192.921 169.831 192.921 170.652C192.921 171.252 192.558 171.586 192.177 171.739L193.284 173.589H192.464L191.509 171.939H190.919V173.589H190.194V169.421H190.195ZM194.457 171.5C194.457 169.85 193.226 168.505 191.5 168.505C189.774 168.505 188.534 169.755 188.534 171.5C188.534 173.15 189.774 174.495 191.5 174.495C193.132 174.495 194.457 173.245 194.457 171.5ZM188 171.5C188 169.47 189.47 168 191.5 168C193.436 168 195 169.47 195 171.5C195 173.532 193.532 175 191.5 175C189.47 175 188 173.532 188 171.5Z" fill="white"/>
</svg>
