<svg width="80" height="80" viewBox="0 0 80 80" fill="none" xmlns="http://www.w3.org/2000/svg">
<path d="M17.6191 76.1063C17.6191 76.1063 16.5254 77.5 13.6816 77.5C10.8379 77.5 9.74414 76.1063 9.74414 76.1063V27.3188H17.6191V76.1063Z" fill="#9E9E9E"/>
<path d="M17.6191 76.1063C17.6191 76.1063 16.5254 77.5 13.6816 77.5C10.8379 77.5 9.74414 76.1063 9.74414 76.1063V57.3125C9.74414 57.3125 10.5441 55.7875 13.4691 55.7875C16.3941 55.7875 17.6191 57.3125 17.6191 57.3125V76.1063Z" fill="#BDBDBD"/>
<path d="M70.25 76.1063C70.25 76.1063 69.1562 77.5 66.3125 77.5C63.4687 77.5 62.375 76.1063 62.375 76.1063V27.3188H70.25V76.1063Z" fill="#9E9E9E"/>
<path d="M70.25 76.1063C70.25 76.1063 69.1562 77.5 66.3125 77.5C63.4687 77.5 62.375 76.1063 62.375 76.1063V57.3125C62.375 57.3125 63.175 55.7875 66.1 55.7875C69.025 55.7875 70.25 57.3125 70.25 57.3125V76.1063Z" fill="#BDBDBD"/>
<path d="M75.7937 51.1625H4.20625C3.2625 51.1625 2.5 50.4 2.5 49.4562V27.6062C2.5 26.6625 3.2625 25.9 4.20625 25.9H75.7937C76.7375 25.9 77.5 26.6625 77.5 27.6062V49.4562C77.5 50.4 76.7375 51.1625 75.7937 51.1625Z" fill="#9E9E9E"/>
<path d="M75.7937 27.15H4.20625C3.2625 27.15 2.5 27.9125 2.5 28.8562V50.7062C2.5 51.65 3.2625 52.4125 4.20625 52.4125H75.7937C76.7375 52.4125 77.5 51.65 77.5 50.7062V28.8562C77.5 27.9125 76.7375 27.15 75.7937 27.15Z" fill="#FFD600"/>
<path d="M10.8938 27.15L2.5 35.5437V47.9187L23.2687 27.15H10.8938Z" fill="#212121"/>
<path d="M34.4379 27.15L9.18164 52.4125H21.5566L46.8129 27.15H34.4379Z" fill="#212121"/>
<path d="M57.9871 27.15L32.7246 52.4125H45.0996L70.3559 27.15H57.9871Z" fill="#212121"/>
<path d="M77.4988 31.1813L56.2676 52.4125H68.6426L77.4988 43.5563V31.1813Z" fill="#212121"/>
<path d="M71.1239 28.2438H61.5052C60.6052 28.2438 59.9427 27.6563 60.1552 27.0563L60.8239 22.8625H71.7927L72.4614 27.0563C72.6864 27.6625 72.0239 28.2438 71.1239 28.2438Z" fill="#E2A610"/>
<path d="M66.3129 22.7625C70.7001 22.7625 74.2566 19.206 74.2566 14.8187C74.2566 10.4315 70.7001 6.875 66.3129 6.875C61.9257 6.875 58.3691 10.4315 58.3691 14.8187C58.3691 19.206 61.9257 22.7625 66.3129 22.7625Z" fill="#FFCA28"/>
<path d="M66.3141 20.6875C69.5553 20.6875 72.1828 18.06 72.1828 14.8188C72.1828 11.5775 69.5553 8.95001 66.3141 8.95001C63.0728 8.95001 60.4453 11.5775 60.4453 14.8188C60.4453 18.06 63.0728 20.6875 66.3141 20.6875Z" fill="#FF5722"/>
<path d="M71.8008 22.925H60.832C60.832 22.925 60.8695 21.175 64.007 21.175C67.1445 21.175 68.657 21.175 68.657 21.175C71.9758 21.175 71.8008 22.925 71.8008 22.925Z" fill="#FFCA28"/>
<path d="M67.0064 12.0063L68.5064 10.0688C68.5751 9.98126 68.7126 10.05 68.6876 10.1563L68.1064 12.5375C67.9689 13.0938 68.3939 13.6313 68.9689 13.6188L71.4189 13.5813C71.5314 13.5813 71.5626 13.7313 71.4626 13.7813L69.2376 14.8125C68.7189 15.0563 68.5689 15.7188 68.9314 16.1625L70.4876 18.0563C70.5564 18.1438 70.4626 18.2625 70.3626 18.2125L68.1689 17.1188C67.6564 16.8625 67.0439 17.1563 66.9189 17.7188L66.4064 20.1188C66.3814 20.2313 66.2251 20.2313 66.2064 20.1188L65.6939 17.7188C65.5751 17.1563 64.9564 16.8625 64.4439 17.1188L62.2501 18.2125C62.1501 18.2625 62.0501 18.1375 62.1251 18.0563L63.6814 16.1625C64.0439 15.7188 63.8939 15.0563 63.3751 14.8125L61.1501 13.7813C61.0501 13.7313 61.0814 13.5813 61.1939 13.5813L63.6439 13.6188C64.2189 13.625 64.6439 13.0938 64.5064 12.5375L63.9251 10.1563C63.9001 10.05 64.0376 9.98126 64.1064 10.0688L65.6064 12.0063C65.9751 12.4563 66.6564 12.4563 67.0064 12.0063Z" fill="#FFD5CA"/>
<path d="M18.4931 28.2438H8.87431C7.9743 28.2438 7.3118 27.6563 7.5243 27.0563L8.19305 22.8625H19.1618L19.8306 27.0563C20.0556 27.6625 19.3931 28.2438 18.4931 28.2438Z" fill="#E2A610"/>
<path d="M13.6879 22.7625C18.0751 22.7625 21.6316 19.206 21.6316 14.8187C21.6316 10.4315 18.0751 6.875 13.6879 6.875C9.30068 6.875 5.74414 10.4315 5.74414 14.8187C5.74414 19.206 9.30068 22.7625 13.6879 22.7625Z" fill="#FFCA28"/>
<path d="M13.6871 20.6875C16.9283 20.6875 19.5559 18.06 19.5559 14.8188C19.5559 11.5775 16.9283 8.95001 13.6871 8.95001C10.4459 8.95001 7.81836 11.5775 7.81836 14.8188C7.81836 18.06 10.4459 20.6875 13.6871 20.6875Z" fill="#FF5722"/>
<path d="M19.168 22.925H8.19922C8.19922 22.925 8.23672 21.175 11.3742 21.175C14.5117 21.175 16.0242 21.175 16.0242 21.175C19.343 21.175 19.168 22.925 19.168 22.925Z" fill="#FFCA28"/>
<path d="M14.3755 12.0063L15.8755 10.0688C15.9442 9.98126 16.0817 10.05 16.0567 10.1563L15.4755 12.5375C15.338 13.0938 15.763 13.6313 16.338 13.6188L18.788 13.5813C18.9005 13.5813 18.9317 13.7313 18.8317 13.7813L16.6067 14.8125C16.088 15.0563 15.938 15.7188 16.3005 16.1625L17.8567 18.0563C17.9255 18.1438 17.8317 18.2625 17.7317 18.2125L15.538 17.1188C15.0255 16.8625 14.413 17.1563 14.288 17.7188L13.7755 20.1188C13.7505 20.2313 13.5942 20.2313 13.5755 20.1188L13.063 17.7188C12.9442 17.1563 12.3255 16.8625 11.813 17.1188L9.61925 18.2125C9.51925 18.2625 9.41924 18.1375 9.49424 18.0563L11.0505 16.1625C11.413 15.7188 11.263 15.0563 10.7442 14.8125L8.51925 13.7813C8.41925 13.7313 8.4505 13.5813 8.563 13.5813L11.013 13.6188C11.588 13.625 12.013 13.0938 11.8755 12.5375L11.2942 10.1563C11.2692 10.05 11.4067 9.98126 11.4755 10.0688L12.9755 12.0063C13.3442 12.4563 14.0255 12.4563 14.3755 12.0063Z" fill="#FFD5CA"/>
</svg>
